<?xml version="1.0" encoding="utf-8"?>
<!-- Generator: Adobe Illustrator 27.6.1, SVG Export Plug-In . SVG Version: 6.00 Build 0)  -->
<svg version="1.1" id="Layer_1" xmlns="http://www.w3.org/2000/svg" xmlns:xlink="http://www.w3.org/1999/xlink" x="0px" y="0px"
	 viewBox="0 0 1080 1080" style="enable-background:new 0 0 1080 1080;" xml:space="preserve">
<style type="text/css">
	.st0{fill:url(#SVGID_1_);}
	.st1{opacity:0.75;fill:url(#SVGID_00000169545107038609842770000001688984367227535280_);}
	.st2{opacity:0.75;fill:url(#SVGID_00000074430940977847643160000010859209265913704357_);}
	.st3{opacity:0.75;fill:url(#SVGID_00000015334568432866911820000000937770171349417150_);}
	.st4{opacity:0.75;fill:url(#SVGID_00000148656070817875149300000001256018994096220577_);}
	.st5{opacity:0.75;fill:url(#SVGID_00000009565040840634137600000008550824529876050086_);}
	.st6{fill:url(#SVGID_00000106861178665762643710000000965080273331192216_);}
	.st7{fill:url(#SVGID_00000178170180765082529230000002046658180489896595_);}
	.st8{fill:#8F5F05;}
</style>
<g>
	<linearGradient id="SVGID_1_" gradientUnits="userSpaceOnUse" x1="77.715" y1="540" x2="534.775" y2="540">
		<stop  offset="0" style="stop-color:#D5A32A"/>
		<stop  offset="0.4523" style="stop-color:#EFCD7C"/>
		<stop  offset="1" style="stop-color:#92630A"/>
	</linearGradient>
	<path class="st0" d="M448.85,578.4v98.95c-28.17,9.78-61.28,14.67-99.31,14.67c-27.71,0-52.47-3.82-74.31-11.45
		c-21.83-7.63-40.39-18.28-55.64-31.98c-15.26-13.7-27.01-29.84-35.22-48.43c-3.09-6.99-5.6-14.24-7.53-21.76H77.71
		c3.26,17.4,8.76,33.85,16.5,49.35c13.38,26.81,32.05,49.89,55.99,69.26c23.95,19.37,52.59,34.43,85.93,45.19
		c33.34,10.76,70.19,16.14,110.58,16.14c39.44,0,74.31-2.84,104.59-8.51c30.29-5.66,58.11-13.59,83.47-23.77V578.4H448.85z
		 M184.37,478.96c8.21-18.39,19.84-34.43,34.87-48.13c15.02-13.69,33.21-24.45,54.58-32.28c21.36-7.82,45.19-11.74,71.49-11.74
		c26.77,0,51.53,4.11,74.31,12.33c22.77,8.21,40.5,18.19,53.18,29.93l61.27-55.17c-20.19-15.65-46.84-28.27-79.94-37.86
		c-33.1-9.58-69.62-14.38-109.52-14.38c-38.51,0-74.2,5.09-107.06,15.26c-32.87,10.18-61.4,24.65-85.58,43.43
		c-24.18,18.79-43.2,41.59-57.05,68.38c-7.54,14.59-13.02,30.13-16.45,46.63h99.79C179.95,489.77,181.99,484.3,184.37,478.96z"/>
	
		<linearGradient id="SVGID_00000111191121725655029850000016417754976173577100_" gradientUnits="userSpaceOnUse" x1="853.9545" y1="208.4669" x2="379.2089" y2="869.3351">
		<stop  offset="0" style="stop-color:#666666"/>
		<stop  offset="0.0754" style="stop-color:#797979"/>
		<stop  offset="0.283" style="stop-color:#A9A9A9"/>
		<stop  offset="0.4806" style="stop-color:#CECECE"/>
		<stop  offset="0.6631" style="stop-color:#E9E9E9"/>
		<stop  offset="0.8249" style="stop-color:#F9F9F9"/>
		<stop  offset="0.9493" style="stop-color:#FFFFFF"/>
	</linearGradient>
	<path style="opacity:0.75;fill:url(#SVGID_00000111191121725655029850000016417754976173577100_);" d="M937.72,594.03v-5.9H792.77
		v-9.73h-11.49v9.73H598.59v-9.73h-40.15v9.73H399.79v-9.73H388.3v9.73H220.48v5.9h148.55v34.67h-10.02v12.8h-8.07v6.66h87.8v-6.66
		h-8.07v-12.8h-10.23v-34.67h138v54.13h40.15v-54.13h162.04v34.67h-9.44v12.8h-8.07v6.66h87.8v-6.66h-8.07v-12.8h-10.81v-34.67
		H937.72z M388.3,628.7h-13.53v-34.67h13.53V628.7z M414.69,628.7h-14.9v-34.67h14.9V628.7z M781.28,628.7h-14.91v-34.67h14.91
		V628.7z M806.29,628.7h-13.52v-34.67h13.52V628.7z"/>
	
		<linearGradient id="SVGID_00000001626707592932516260000008472991719499651237_" gradientUnits="userSpaceOnUse" x1="802.0059" y1="464.4189" x2="776.1215" y2="500.4513">
		<stop  offset="0" style="stop-color:#666666"/>
		<stop  offset="0.0754" style="stop-color:#797979"/>
		<stop  offset="0.283" style="stop-color:#A9A9A9"/>
		<stop  offset="0.4806" style="stop-color:#CECECE"/>
		<stop  offset="0.6631" style="stop-color:#E9E9E9"/>
		<stop  offset="0.8249" style="stop-color:#F9F9F9"/>
		<stop  offset="0.9493" style="stop-color:#FFFFFF"/>
	</linearGradient>
	
		<rect x="781.28" y="475.2" style="opacity:0.75;fill:url(#SVGID_00000001626707592932516260000008472991719499651237_);" width="11.49" height="20.16"/>
	
		<linearGradient id="SVGID_00000037661143112466078640000017335784916069999535_" gradientUnits="userSpaceOnUse" x1="745.7222" y1="250.8702" x2="462.6393" y2="644.9348">
		<stop  offset="0" style="stop-color:#666666"/>
		<stop  offset="0.0754" style="stop-color:#797979"/>
		<stop  offset="0.283" style="stop-color:#A9A9A9"/>
		<stop  offset="0.4806" style="stop-color:#CECECE"/>
		<stop  offset="0.6631" style="stop-color:#E9E9E9"/>
		<stop  offset="0.8249" style="stop-color:#F9F9F9"/>
		<stop  offset="0.9493" style="stop-color:#FFFFFF"/>
	</linearGradient>
	<path style="opacity:0.75;fill:url(#SVGID_00000037661143112466078640000017335784916069999535_);" d="M420.44,495.36v-2.65
		c22.46-10.49,42.93-21.73,61.25-33.64v36.29h9.77v-42.85c2.94-2.05,5.84-4.1,8.66-6.17c33.01-24.31,57.55-51.18,73.23-80.12v129.14
		h11.49V366.22c15.68,28.94,40.23,55.81,73.23,80.12c3.04,2.23,6.18,4.44,9.36,6.64v42.38h9.77v-35.83
		c19.69,12.75,41.86,24.72,66.31,35.83h22.86v-27.79h-5.74v25.64c-31.52-13.45-59.46-28.28-83.43-44.29v-17.7h-9.77v10.95
		c-1.4-1-2.81-2-4.18-3c-38.08-28.05-64.43-59.46-78.41-93.42V325.8h-11.49v19.95c-13.96,33.94-40.29,65.33-78.34,93.37
		c-1.17,0.86-2.37,1.71-3.55,2.56v-10.46h-9.77v17.25c-18.18,12.19-38.66,23.7-61.25,34.44v-15.34h-5.75v18.03
		c-4.87,2.26-9.84,4.48-14.9,6.66V475.2H388.3v20.16H420.44z"/>
	
		<linearGradient id="SVGID_00000116222967644602051380000011145216236204134030_" gradientUnits="userSpaceOnUse" x1="676.7184" y1="572.9333" x2="669.104" y2="583.5329">
		<stop  offset="0" style="stop-color:#666666"/>
		<stop  offset="0.0754" style="stop-color:#797979"/>
		<stop  offset="0.283" style="stop-color:#A9A9A9"/>
		<stop  offset="0.4806" style="stop-color:#CECECE"/>
		<stop  offset="0.6631" style="stop-color:#E9E9E9"/>
		<stop  offset="0.8249" style="stop-color:#F9F9F9"/>
		<stop  offset="0.9493" style="stop-color:#FFFFFF"/>
	</linearGradient>
	
		<rect x="667.43" y="578.4" style="opacity:0.75;fill:url(#SVGID_00000116222967644602051380000011145216236204134030_);" width="9.77" height="1.34"/>
	
		<linearGradient id="SVGID_00000117668680876776541890000009873055636366624171_" gradientUnits="userSpaceOnUse" x1="490.9783" y1="572.9334" x2="483.364" y2="583.5329">
		<stop  offset="0" style="stop-color:#666666"/>
		<stop  offset="0.0754" style="stop-color:#797979"/>
		<stop  offset="0.283" style="stop-color:#A9A9A9"/>
		<stop  offset="0.4806" style="stop-color:#CECECE"/>
		<stop  offset="0.6631" style="stop-color:#E9E9E9"/>
		<stop  offset="0.8249" style="stop-color:#F9F9F9"/>
		<stop  offset="0.9493" style="stop-color:#FFFFFF"/>
	</linearGradient>
	
		<rect x="481.69" y="578.4" style="opacity:0.75;fill:url(#SVGID_00000117668680876776541890000009873055636366624171_);" width="9.77" height="1.34"/>
	
		<linearGradient id="SVGID_00000098189317067684668510000003169796350464600501_" gradientUnits="userSpaceOnUse" x1="633.925" y1="662.65" x2="1002.285" y2="662.65">
		<stop  offset="0" style="stop-color:#D5A32A"/>
		<stop  offset="0.4523" style="stop-color:#EFCD7C"/>
		<stop  offset="1" style="stop-color:#92630A"/>
	</linearGradient>
	<path style="fill:url(#SVGID_00000098189317067684668510000003169796350464600501_);" d="M989.58,578.4h-99.52
		c15.65,8.87,23.48,23.55,23.48,44.06c0,13.71-3.65,24.66-10.92,32.87c-7.29,8.22-16.44,14.48-27.47,18.79
		c-11.04,4.31-23.13,7.14-36.27,8.51c-13.15,1.37-25.36,2.05-36.63,2.05h-79.59V578.4h-88.74v168.5h179.6
		c23.48,0,46.6-2.06,69.38-6.17c22.77-4.11,42.96-10.85,60.57-20.25c17.61-9.39,31.8-21.81,42.61-37.27
		c10.8-15.45,16.2-34.53,16.2-57.22C1002.29,607.74,998.06,591.88,989.58,578.4z"/>
	
		<linearGradient id="SVGID_00000032620575368478716230000008522187158157354636_" gradientUnits="userSpaceOnUse" x1="633.925" y1="413.35" x2="981.155" y2="413.35">
		<stop  offset="0" style="stop-color:#D5A32A"/>
		<stop  offset="0.4523" style="stop-color:#EFCD7C"/>
		<stop  offset="1" style="stop-color:#92630A"/>
	</linearGradient>
	<path style="fill:url(#SVGID_00000032620575368478716230000008522187158157354636_);" d="M722.67,392.38h71.14
		c33.81,0,58.69,3.92,74.66,11.74c15.96,7.84,23.95,21.13,23.95,39.92c0,18-7.75,31.89-23.25,41.67
		c-6.44,4.06-14.08,7.28-22.94,9.65h109.45c0.51-0.48,1.02-0.96,1.53-1.44c15.96-15.25,23.95-34.62,23.95-58.1
		c0-18.78-4.47-34.82-13.38-48.13c-8.93-13.3-20.55-24.16-34.87-32.58c-14.32-8.41-30.63-14.47-48.95-18.19
		c-18.31-3.71-36.86-5.58-55.64-5.58H633.93v164.02h88.74V392.38z"/>
	<g>
		<path class="st8" d="M260.51,524.8c-1.01-1.1-2.28-1.98-3.84-2.64c-1.55-0.66-3.29-0.99-5.21-0.99c-1.95,0-3.71,0.35-5.28,1.06
			c-1.57,0.71-2.91,1.67-4,2.9c-1.1,1.22-1.95,2.65-2.54,4.26c-0.6,1.62-0.9,3.34-0.9,5.16c0,1.85,0.3,3.6,0.9,5.23
			c0.6,1.63,1.44,3.05,2.54,4.26c1.1,1.21,2.45,2.16,4.05,2.85c1.6,0.69,3.39,1.04,5.37,1.04c1.57,0,3.02-0.14,4.33-0.42
			c1.32-0.28,2.46-0.69,3.44-1.22v-9.28h-7.4v-3.96H264v16.16c-1.76,0.94-3.67,1.67-5.75,2.17s-4.33,0.75-6.78,0.75
			c-2.61,0-5-0.43-7.18-1.3c-2.18-0.86-4.06-2.07-5.63-3.63c-1.57-1.55-2.8-3.41-3.67-5.56c-0.88-2.15-1.32-4.51-1.32-7.09
			c0-2.61,0.45-4.99,1.34-7.14c0.9-2.15,2.14-3.99,3.72-5.51c1.59-1.52,3.46-2.71,5.63-3.56c2.17-0.85,4.52-1.27,7.07-1.27
			c2.67,0,5.05,0.39,7.14,1.18c2.09,0.79,3.82,1.84,5.21,3.16L260.51,524.8z"/>
		<path class="st8" d="M329.19,534.56c0,2.58-0.45,4.94-1.34,7.09s-2.13,4-3.7,5.56s-3.44,2.76-5.61,3.63s-4.52,1.3-7.07,1.3
			s-4.89-0.43-7.04-1.3c-2.15-0.86-4.01-2.07-5.58-3.63c-1.57-1.55-2.8-3.41-3.67-5.56c-0.88-2.15-1.32-4.51-1.32-7.09
			c0-2.61,0.44-4.99,1.32-7.14c0.88-2.15,2.1-3.99,3.67-5.51c1.57-1.52,3.43-2.71,5.58-3.56c2.15-0.85,4.5-1.27,7.04-1.27
			s4.9,0.42,7.07,1.27c2.17,0.85,4.04,2.03,5.61,3.56s2.8,3.36,3.7,5.51C328.74,529.57,329.19,531.95,329.19,534.56z M324.15,534.56
			c0-1.82-0.3-3.54-0.9-5.16c-0.6-1.62-1.44-3.04-2.54-4.26c-1.1-1.22-2.43-2.19-3.98-2.9c-1.55-0.71-3.31-1.06-5.25-1.06
			c-1.92,0-3.65,0.35-5.21,1.06c-1.55,0.71-2.87,1.67-3.96,2.9s-1.92,2.65-2.52,4.26c-0.6,1.62-0.9,3.34-0.9,5.16
			c0,1.85,0.3,3.6,0.9,5.23c0.6,1.63,1.44,3.05,2.54,4.26c1.1,1.21,2.42,2.16,3.96,2.85c1.54,0.69,3.27,1.04,5.18,1.04
			c1.92,0,3.66-0.34,5.23-1.04c1.57-0.69,2.9-1.64,4-2.85c1.1-1.21,1.95-2.63,2.54-4.26C323.85,538.15,324.15,536.41,324.15,534.56z
			"/>
		<path class="st8" d="M363.77,547.13h14.89v4.15H359.1v-33.35h4.66V547.13z"/>
		<path class="st8" d="M406.73,517.93h11.45c2.14,0,4.27,0.31,6.41,0.94c2.14,0.63,4.07,1.62,5.79,2.97
			c1.73,1.35,3.12,3.08,4.19,5.18c1.07,2.1,1.6,4.63,1.6,7.58c0,2.86-0.53,5.33-1.6,7.42c-1.07,2.09-2.47,3.82-4.19,5.18
			c-1.73,1.37-3.66,2.39-5.79,3.06c-2.14,0.68-4.27,1.01-6.41,1.01h-11.45V517.93z M411.39,547.18h5.84c2.01,0,3.87-0.28,5.58-0.85
			c1.71-0.56,3.19-1.38,4.43-2.45c1.24-1.07,2.21-2.39,2.9-3.96c0.69-1.57,1.04-3.34,1.04-5.32c0-2.07-0.35-3.89-1.04-5.46
			c-0.69-1.57-1.66-2.88-2.9-3.93c-1.24-1.05-2.72-1.85-4.43-2.4c-1.71-0.55-3.57-0.82-5.58-0.82h-5.84V547.18z"/>
		<path class="st8" d="M470.79,547.13h17.43v4.15h-22.09v-33.35h21.39v4.1h-16.72v9.99h15.73v4h-15.73V547.13z"/>
		<path class="st8" d="M541.5,544.59h0.09v-26.66h4.66v33.35h-5.89l-17.62-27.23h-0.09v27.23h-4.66v-33.35h6.08L541.5,544.59z"/>
		<path class="st8" d="M613.24,517.93h11.49c1.26,0,2.51,0.14,3.77,0.42c1.26,0.28,2.38,0.75,3.37,1.41
			c0.99,0.66,1.79,1.52,2.4,2.59s0.92,2.4,0.92,4c0,1.85-0.53,3.41-1.6,4.66c-1.07,1.26-2.48,2.12-4.24,2.59v0.09
			c1.07,0.13,2.06,0.4,2.97,0.82s1.7,0.98,2.36,1.67c0.66,0.69,1.17,1.51,1.53,2.45c0.36,0.94,0.54,1.99,0.54,3.16
			c0,1.6-0.33,3-0.99,4.19c-0.66,1.19-1.55,2.17-2.69,2.94s-2.46,1.35-3.98,1.74c-1.52,0.39-3.15,0.59-4.88,0.59h-10.98V517.93z
			 M617.91,532.01h6.08c0.88,0,1.72-0.1,2.52-0.31s1.5-0.52,2.1-0.94c0.6-0.42,1.07-0.96,1.41-1.6c0.34-0.64,0.52-1.42,0.52-2.33
			c0-1.79-0.66-3.07-1.98-3.84c-1.32-0.77-3.09-1.15-5.32-1.15h-5.32V532.01z M617.91,547.32h5.84c0.97,0,1.96-0.09,2.94-0.26
			c0.99-0.17,1.88-0.48,2.69-0.92c0.8-0.44,1.44-1.03,1.93-1.77c0.49-0.74,0.73-1.67,0.73-2.8c0-1.98-0.68-3.41-2.03-4.29
			c-1.35-0.88-3.3-1.32-5.84-1.32h-6.26V547.32z"/>
		<path class="st8" d="M671.7,551.28h-4.66v-33.35h10.69c1.6,0,3.12,0.17,4.57,0.5s2.71,0.86,3.79,1.58
			c1.08,0.72,1.94,1.67,2.57,2.85c0.63,1.18,0.94,2.61,0.94,4.31c0,2.45-0.75,4.43-2.26,5.94c-1.51,1.51-3.45,2.47-5.84,2.87
			l9.33,15.31h-5.65l-8.48-14.84h-4.99V551.28z M671.7,532.53h5.37c1.1,0,2.12-0.09,3.06-0.28c0.94-0.19,1.77-0.5,2.47-0.92
			c0.71-0.42,1.26-0.97,1.67-1.65s0.61-1.52,0.61-2.52s-0.2-1.84-0.61-2.52c-0.41-0.67-0.95-1.22-1.62-1.62
			c-0.68-0.41-1.47-0.7-2.38-0.87c-0.91-0.17-1.87-0.26-2.87-0.26h-5.7V532.53z"/>
		<path class="st8" d="M724.18,551.28h-4.66v-33.35h4.66V551.28z"/>
		<path class="st8" d="M755.83,517.93h11.45c2.13,0,4.27,0.31,6.41,0.94c2.14,0.63,4.07,1.62,5.79,2.97
			c1.73,1.35,3.12,3.08,4.19,5.18c1.07,2.1,1.6,4.63,1.6,7.58c0,2.86-0.53,5.33-1.6,7.42s-2.46,3.82-4.19,5.18s-3.66,2.39-5.79,3.06
			c-2.14,0.68-4.27,1.01-6.41,1.01h-11.45V517.93z M760.5,547.18h5.84c2.01,0,3.87-0.28,5.58-0.85c1.71-0.56,3.19-1.38,4.43-2.45
			c1.24-1.07,2.21-2.39,2.9-3.96c0.69-1.57,1.04-3.34,1.04-5.32c0-2.07-0.35-3.89-1.04-5.46c-0.69-1.57-1.66-2.88-2.9-3.93
			c-1.24-1.05-2.72-1.85-4.43-2.4c-1.71-0.55-3.57-0.82-5.58-0.82h-5.84V547.18z"/>
		<path class="st8" d="M840.39,524.8c-1.01-1.1-2.29-1.98-3.84-2.64c-1.55-0.66-3.29-0.99-5.21-0.99c-1.95,0-3.71,0.35-5.28,1.06
			c-1.57,0.71-2.91,1.67-4,2.9c-1.1,1.22-1.95,2.65-2.54,4.26c-0.6,1.62-0.9,3.34-0.9,5.16c0,1.85,0.3,3.6,0.9,5.23
			c0.6,1.63,1.44,3.05,2.54,4.26c1.1,1.21,2.45,2.16,4.05,2.85c1.6,0.69,3.39,1.04,5.37,1.04c1.57,0,3.01-0.14,4.33-0.42
			c1.32-0.28,2.46-0.69,3.44-1.22v-9.28h-7.4v-3.96h12.01v16.16c-1.76,0.94-3.67,1.67-5.75,2.17c-2.07,0.5-4.33,0.75-6.78,0.75
			c-2.61,0-5-0.43-7.18-1.3s-4.06-2.07-5.63-3.63s-2.8-3.41-3.67-5.56s-1.32-4.51-1.32-7.09c0-2.61,0.45-4.99,1.34-7.14
			c0.89-2.15,2.13-3.99,3.72-5.51s3.46-2.71,5.63-3.56c2.17-0.85,4.52-1.27,7.07-1.27c2.67,0,5.05,0.39,7.14,1.18
			c2.09,0.79,3.82,1.84,5.21,3.16L840.39,524.8z"/>
		<path class="st8" d="M880.1,547.13h17.43v4.15h-22.09v-33.35h21.39v4.1H880.1v9.99h15.73v4H880.1V547.13z"/>
	</g>
</g>
</svg>
